<svg xmlns="http://www.w3.org/2000/svg" width="1280" height="720" viewBox="0 0 1280 720" role="img" aria-label="Codev ERP dashboard wireframe">
  <rect width="1280" height="720" fill="#07090f"/>
  <rect x="0" y="0" width="1280" height="48" fill="#0e1119"/>
  <rect x="24" y="14" width="120" height="20" rx="4" fill="#f0b429" opacity="0.85"/>
  <rect x="960" y="12" width="296" height="24" rx="6" fill="#0a0d14" stroke="#565c66" stroke-width="1"/>
  <rect x="0" y="48" width="220" height="672" fill="#0a0d14"/>
  <rect x="24" y="80" width="172" height="16" rx="3" fill="#edeff2" opacity="0.9"/>
  <rect x="24" y="112" width="172" height="12" rx="2" fill="#8b919a"/>
  <rect x="24" y="136" width="172" height="12" rx="2" fill="#565c66"/>
  <rect x="24" y="160" width="172" height="12" rx="2" fill="#565c66"/>
  <rect x="24" y="184" width="172" height="12" rx="2" fill="#565c66"/>
  <rect x="252" y="72" width="280" height="120" rx="8" fill="#0e1119" stroke="#565c66" stroke-width="1"/>
  <rect x="268" y="92" width="80" height="10" rx="2" fill="#8b919a"/>
  <rect x="268" y="116" width="120" height="28" rx="4" fill="#f0b429" opacity="0.7"/>
  <rect x="552" y="72" width="280" height="120" rx="8" fill="#0e1119" stroke="#565c66" stroke-width="1"/>
  <rect x="568" y="92" width="80" height="10" rx="2" fill="#8b919a"/>
  <rect x="568" y="116" width="120" height="28" rx="4" fill="#34d399" opacity="0.75"/>
  <rect x="852" y="72" width="376" height="120" rx="8" fill="#0e1119" stroke="#565c66" stroke-width="1"/>
  <rect x="868" y="92" width="80" height="10" rx="2" fill="#8b919a"/>
  <rect x="868" y="116" width="120" height="28" rx="4" fill="#edeff2" opacity="0.85"/>
  <rect x="252" y="216" width="976" height="240" rx="8" fill="#0e1119" stroke="#565c66" stroke-width="1"/>
  <rect x="268" y="236" width="120" height="12" rx="2" fill="#8b919a"/>
  <polyline points="280,420 360,340 440,380 520,300 600,320 680,260 760,280 840,220 920,240 1000,200 1080,220" fill="none" stroke="#f0b429" stroke-width="3" stroke-linecap="round" stroke-linejoin="round"/>
  <rect x="252" y="480" width="976" height="192" rx="8" fill="#0e1119" stroke="#565c66" stroke-width="1"/>
  <rect x="268" y="500" width="944" height="24" rx="4" fill="#0a0d14"/>
  <rect x="268" y="536" width="944" height="20" rx="2" fill="#565c66" opacity="0.35"/>
  <rect x="268" y="568" width="944" height="20" rx="2" fill="#565c66" opacity="0.25"/>
  <rect x="268" y="600" width="944" height="20" rx="2" fill="#565c66" opacity="0.25"/>
  <rect x="268" y="632" width="944" height="20" rx="2" fill="#565c66" opacity="0.25"/>
</svg>
