<svg xmlns="http://www.w3.org/2000/svg" width="1280" height="720" viewBox="0 0 1280 720" role="img" aria-label="Codev ERP inventory module wireframe">
  <rect width="1280" height="720" fill="#07090f"/>
  <rect x="0" y="0" width="1280" height="48" fill="#0e1119"/>
  <rect x="24" y="14" width="120" height="20" rx="4" fill="#f0b429" opacity="0.85"/>
  <rect x="252" y="72" width="400" height="32" rx="6" fill="#0a0d14" stroke="#565c66" stroke-width="1"/>
  <rect x="668" y="72" width="160" height="32" rx="6" fill="#0e1119" stroke="#f0b429" stroke-width="1"/>
  <text x="684" y="93" fill="#f0b429" font-family="monospace" font-size="14">Warehouse A</text>
  <rect x="252" y="128" width="976" height="544" rx="8" fill="#0e1119" stroke="#565c66" stroke-width="1"/>
  <rect x="268" y="148" width="944" height="28" rx="4" fill="#0a0d14"/>
  <rect x="280" y="156" width="120" height="12" rx="2" fill="#8b919a"/>
  <rect x="420" y="156" width="80" height="12" rx="2" fill="#8b919a"/>
  <rect x="560" y="156" width="80" height="12" rx="2" fill="#8b919a"/>
  <rect x="700" y="156" width="80" height="12" rx="2" fill="#8b919a"/>
  <rect x="840" y="156" width="80" height="12" rx="2" fill="#8b919a"/>
  <rect x="268" y="192" width="944" height="36" rx="4" fill="#565c66" opacity="0.2"/>
  <rect x="280" y="204" width="140" height="12" rx="2" fill="#edeff2" opacity="0.9"/>
  <rect x="420" y="204" width="60" height="12" rx="2" fill="#8b919a"/>
  <rect x="560" y="204" width="60" height="12" rx="2" fill="#34d399"/>
  <rect x="700" y="204" width="60" height="12" rx="2" fill="#8b919a"/>
  <rect x="840" y="204" width="80" height="12" rx="2" fill="#8b919a"/>
  <rect x="268" y="240" width="944" height="36" rx="4" fill="#565c66" opacity="0.15"/>
  <rect x="280" y="252" width="140" height="12" rx="2" fill="#edeff2" opacity="0.85"/>
  <rect x="420" y="252" width="60" height="12" rx="2" fill="#8b919a"/>
  <rect x="560" y="252" width="60" height="12" rx="2" fill="#f87171"/>
  <rect x="700" y="252" width="60" height="12" rx="2" fill="#8b919a"/>
  <rect x="840" y="252" width="80" height="12" rx="2" fill="#f0b429" opacity="0.8"/>
  <rect x="268" y="288" width="944" height="36" rx="4" fill="#565c66" opacity="0.15"/>
  <rect x="280" y="300" width="140" height="12" rx="2" fill="#edeff2" opacity="0.85"/>
  <rect x="420" y="300" width="60" height="12" rx="2" fill="#8b919a"/>
  <rect x="560" y="300" width="60" height="12" rx="2" fill="#34d399"/>
  <rect x="700" y="300" width="60" height="12" rx="2" fill="#8b919a"/>
  <rect x="840" y="300" width="80" height="12" rx="2" fill="#8b919a"/>
  <rect x="268" y="336" width="944" height="36" rx="4" fill="#565c66" opacity="0.15"/>
  <rect x="268" y="384" width="944" height="36" rx="4" fill="#565c66" opacity="0.15"/>
  <rect x="268" y="432" width="944" height="36" rx="4" fill="#565c66" opacity="0.15"/>
  <rect x="268" y="592" width="320" height="64" rx="6" fill="#0a0d14" stroke="#f87171" stroke-width="1"/>
  <rect x="284" y="608" width="160" height="10" rx="2" fill="#f87171" opacity="0.9"/>
  <rect x="284" y="628" width="240" height="10" rx="2" fill="#8b919a"/>
</svg>
