<svg xmlns="http://www.w3.org/2000/svg" width="1280" height="720" viewBox="0 0 1280 720" role="img" aria-label="Poj Pro admin panel wireframe">
  <rect width="1280" height="720" fill="#07090f"/>
  <rect x="0" y="0" width="1280" height="48" fill="#0e1119"/>
  <rect x="24" y="14" width="140" height="20" rx="4" fill="#f0b429" opacity="0.85"/>
  <rect x="1100" y="12" width="156" height="24" rx="6" fill="#0a0d14" stroke="#565c66" stroke-width="1"/>
  <rect x="0" y="48" width="240" height="672" fill="#0a0d14"/>
  <rect x="24" y="72" width="192" height="14" rx="2" fill="#f0b429" opacity="0.8"/>
  <rect x="24" y="104" width="192" height="12" rx="2" fill="#565c66" opacity="0.5"/>
  <rect x="24" y="128" width="192" height="12" rx="2" fill="#565c66" opacity="0.5"/>
  <rect x="24" y="152" width="192" height="12" rx="2" fill="#565c66" opacity="0.5"/>
  <rect x="24" y="176" width="192" height="12" rx="2" fill="#565c66" opacity="0.5"/>
  <rect x="264" y="72" width="992" height="48" rx="8" fill="#0e1119" stroke="#565c66" stroke-width="1"/>
  <rect x="280" y="88" width="200" height="16" rx="2" fill="#edeff2" opacity="0.9"/>
  <rect x="1080" y="84" width="160" height="24" rx="6" fill="#34d399" opacity="0.6"/>
  <rect x="264" y="136" width="992" height="520" rx="8" fill="#0e1119" stroke="#565c66" stroke-width="1"/>
  <rect x="280" y="156" width="960" height="28" rx="4" fill="#0a0d14"/>
  <rect x="292" y="164" width="100" height="12" rx="2" fill="#8b919a"/>
  <rect x="420" y="164" width="80" height="12" rx="2" fill="#8b919a"/>
  <rect x="540" y="164" width="80" height="12" rx="2" fill="#8b919a"/>
  <rect x="660" y="164" width="80" height="12" rx="2" fill="#8b919a"/>
  <rect x="780" y="164" width="80" height="12" rx="2" fill="#8b919a"/>
  <rect x="280" y="200" width="960" height="36" rx="4" fill="#565c66" opacity="0.18"/>
  <rect x="292" y="212" width="180" height="12" rx="2" fill="#edeff2" opacity="0.85"/>
  <rect x="420" y="212" width="100" height="12" rx="2" fill="#8b919a"/>
  <rect x="540" y="212" width="60" height="12" rx="2" fill="#34d399"/>
  <rect x="280" y="248" width="960" height="36" rx="4" fill="#565c66" opacity="0.14"/>
  <rect x="280" y="296" width="960" height="36" rx="4" fill="#565c66" opacity="0.14"/>
  <rect x="280" y="344" width="960" height="36" rx="4" fill="#565c66" opacity="0.14"/>
  <rect x="280" y="392" width="960" height="36" rx="4" fill="#565c66" opacity="0.14"/>
  <rect x="280" y="600" width="320" height="40" rx="6" fill="#0a0d14" stroke="#565c66" stroke-width="1"/>
  <rect x="296" y="614" width="80" height="12" rx="2" fill="#8b919a"/>
</svg>
