<svg xmlns="http://www.w3.org/2000/svg" width="1280" height="720" viewBox="0 0 1280 720" role="img" aria-label="Poj Pro product catalog wireframe">
  <rect width="1280" height="720" fill="#07090f"/>
  <rect x="0" y="0" width="1280" height="56" fill="#0e1119"/>
  <rect x="32" y="18" width="100" height="20" rx="4" fill="#f0b429" opacity="0.85"/>
  <rect x="200" y="16" width="480" height="24" rx="6" fill="#0a0d14" stroke="#565c66" stroke-width="1"/>
  <rect x="1040" y="14" width="80" height="28" rx="6" fill="#0e1119" stroke="#565c66" stroke-width="1"/>
  <rect x="1140" y="14" width="108" height="28" rx="6" fill="#0e1119" stroke="#565c66" stroke-width="1"/>
  <rect x="32" y="80" width="220" height="600" rx="8" fill="#0a0d14" stroke="#565c66" stroke-width="1"/>
  <rect x="48" y="100" width="120" height="12" rx="2" fill="#8b919a"/>
  <rect x="48" y="128" width="188" height="14" rx="2" fill="#edeff2" opacity="0.9"/>
  <rect x="48" y="152" width="188" height="14" rx="2" fill="#565c66" opacity="0.6"/>
  <rect x="48" y="176" width="188" height="14" rx="2" fill="#565c66" opacity="0.5"/>
  <rect x="48" y="200" width="188" height="14" rx="2" fill="#565c66" opacity="0.5"/>
  <rect x="48" y="224" width="188" height="14" rx="2" fill="#565c66" opacity="0.5"/>
  <rect x="272" y="80" width="976" height="32" rx="4" fill="#0e1119"/>
  <rect x="288" y="88" width="80" height="16" rx="2" fill="#f0b429" opacity="0.7"/>
  <rect x="384" y="88" width="100" height="16" rx="2" fill="#565c66" opacity="0.4"/>
  <rect x="500" y="88" width="100" height="16" rx="2" fill="#565c66" opacity="0.4"/>
  <rect x="272" y="128" width="310" height="280" rx="8" fill="#0e1119" stroke="#565c66" stroke-width="1"/>
  <rect x="288" y="148" width="278" height="140" rx="4" fill="#0a0d14"/>
  <rect x="288" y="300" width="200" height="14" rx="2" fill="#edeff2" opacity="0.85"/>
  <rect x="288" y="324" width="120" height="12" rx="2" fill="#8b919a"/>
  <rect x="288" y="348" width="80" height="12" rx="2" fill="#f0b429" opacity="0.75"/>
  <rect x="602" y="128" width="310" height="280" rx="8" fill="#0e1119" stroke="#565c66" stroke-width="1"/>
  <rect x="618" y="148" width="278" height="140" rx="4" fill="#0a0d14"/>
  <rect x="618" y="300" width="200" height="14" rx="2" fill="#edeff2" opacity="0.85"/>
  <rect x="618" y="324" width="120" height="12" rx="2" fill="#8b919a"/>
  <rect x="932" y="128" width="310" height="280" rx="8" fill="#0e1119" stroke="#565c66" stroke-width="1"/>
  <rect x="948" y="148" width="278" height="140" rx="4" fill="#0a0d14"/>
  <rect x="948" y="300" width="200" height="14" rx="2" fill="#edeff2" opacity="0.85"/>
  <rect x="272" y="428" width="310" height="252" rx="8" fill="#0e1119" stroke="#565c66" stroke-width="1"/>
  <rect x="602" y="428" width="310" height="252" rx="8" fill="#0e1119" stroke="#565c66" stroke-width="1"/>
  <rect x="932" y="428" width="310" height="252" rx="8" fill="#0e1119" stroke="#565c66" stroke-width="1"/>
</svg>
